# xmcd
#
# Track frame offsets:
#	150
#	11981
#	22120
#	31966
#	44682
#	56374
#	69069
#	82057
#	94418
#	105455
#	115601
#	126875
#	138957
#	150900
#	162007
#	173602
#
# Disc length: 2477 seconds
#
# Revision: 0
# Processed by: cddbd v1.5.1PL0 Copyright (c) Steve Scherf et al.
# Submitted via: dBpowerAMP V4.0
#
DISCID=c409ab10
DTITLE=Kitty Wells - Country Music Hall Of Fame Series
DYEAR=1999
DGENRE=Country
TTITLE0=It Wasn't God Who Made Honky Tonk Angels
TTITLE1=I Heard The Jukebox Playing
TTITLE2=Icicles Hanging From Your Heart
TTITLE3=My Cold, Cold Heart Is Melted Now
TTITLE4=I Gave My Wedding Dress Away
TTITLE5=Release Me
TTITLE6=Making Believe
TTITLE7=I'd Rather Stay Home
TTITLE8=Searching ( For Someone Like You )
TTITLE9=I Can't Stop Loving You
TTITLE10=Mommy For A Day
TTITLE11=Amigo's Guitar
TTITLE12=Heartbreak U.S.A.
TTITLE13=Will Your Lawyer Talk To God
TTITLE14=Password
TTITLE15=A Woman Half My Age
EXTD=
EXTT0=
EXTT1=
EXTT2=
EXTT3=
EXTT4=
EXTT5=
EXTT6=
EXTT7=
EXTT8=
EXTT9=
EXTT10=
EXTT11=
EXTT12=
EXTT13=
EXTT14=
EXTT15=
PLAYORDER=
